<svg viewBox="0 0 16.97 24" xmlns="http://www.w3.org/2000/svg">
  <path d="m53.203 233.17c-8.3445-6.659 12.51-12.62 1.7892-19.07-6.7496-4.5579-9.0575-15.043-2.1497-20.588 1.4236-2.4972 5.8883-3.9012 5.4114-7.0331-2.7535-3.868-12.895-12.997-2.3279-13.88 4.5471 3.9618 10.955 8.5404 10.42 15.338 0.24844 7.2782-12.993 10.571-8.6787 17.587 4.5952 4.8289 12.142 11.362 7.1909 18.545-3.2373 3.3051-6.5083 9.5229-11.655 9.1014zm48.657-0.0432c-9.5866-6.1913 12.26-11.679 1.7031-17.449-5.253-5.3271 4.3147-10.733 7.0592-3.8278 8.4588 5.7086 2.7561 15.095-3.7141 19.464-1.3073 1.2684-3.0747 2.8035-5.0481 1.8123zm47.019-0.13745c-8.2908-6.1614 11.812-11.702 2.7838-17.79-6.1048-4.5314-10.915-13.957-4.0526-20.087 2.175-3.0451 9.7228-7.5764 5.3054-11.432-4.3331-2.7036-8.8643-12.267-0.20129-10.935 5.9502 4.0506 12.899 12.202 7.8609 19.551-4.5438 4.9779-12.913 11.695-3.6086 16.965 6.5277 4.8514 6.6208 14.458 0.0546 19.303-2.1173 2.1863-4.5757 6.0222-8.1421 4.4243zm-46.247-31.18c-7.0692-3.6464-11.814-10.829-17.872-15.957-14.62-14.729-29.753-28.994-43.727-44.336-3.5123-4.084 0.18223-11.45 5.4969-10.524 6.5251-0.10392 13.05-0.20783 19.575-0.31175 2.5659-1.4306 1.9594-4.1883 1.9892-6.6797 0.27267-16.115-0.1769-32.274 0.81104-48.354 2.2084-7.873 10.096-13.187 18.235-12.398 13.772-0.07075 27.578-0.31084 41.331 0.3869 8.379 1.6982 13.959 10.319 12.923 18.658 0.23243 15.476 0.26634 30.954 0.39602 46.431 1.4301 2.5656 4.1879 1.9626 6.6797 1.9947 6.2106 0.3046 12.698-0.62212 18.659 1.1535 8.6621 6.3838-2.4604 14.019-6.9411 18.926-16.774 16.836-33.418 33.829-50.765 50.073-2.062 1.0676-4.5167 1.4261-6.7911 0.93736zm30.692-35.154c9.4074-9.4729 18.815-18.946 28.222-28.419-7.0397-0.29884-14.305 0.86102-21.155-0.94267-4.3654-1.9195-6.7568-6.6542-6.0375-11.26-0.10792-15.972-0.21584-31.944-0.32376-47.917-1.579-6.3541-8.1874-7.9196-13.967-7.1877-12.408-0.08276-24.816-0.02882-37.224-0.04422-7.0831 2.0634-7.4356 9.8439-7.051 15.96-0.14438 14.612-0.2131 29.224-0.31945 43.836-1.6743 5.0917-6.7659 8.2505-12.112 7.4214-5.1173 0.10081-10.235 0.14311-15.353 0.21341 18.966 18.925 37.831 37.953 56.921 56.753 9.5509-9.3853 18.947-18.929 28.399-28.413z " />
</svg>