<?xml version="1.0" encoding="UTF-8"?>
<svg version="1.1" viewBox="0 0 666.67 666.67" xmlns="http://www.w3.org/2000/svg">
 <path d="m287.35 10.789c-40.52 0.24006-46.948 1.8555-57.953 7.3613-14.5 7.2541-26.148 21.668-32.201 39.85-1.3862 4.1633-1.9324 26.754-2.4863 102.97l-0.70898 97.637-3.6934 3.6973-3.6953 3.6953-83.723 1.334-5.6406 4c-10.892 7.7257-13.401 19.122-7.1934 32.666 2.9062 6.3406 18.111 22.064 112.32 116.15 59.927 59.848 111.06 109.9 113.62 111.22 2.5667 1.3248 6.466 2.8824 8.666 3.4609 7.3742 1.9394 18.875 0.35201 25.668-3.543 7.6319-4.3758 218.02-213.79 225.15-224.12 5.3597-7.754 6.7825-14.735 4.6328-22.719-1.824-6.7739-9.8477-14.403-17.242-16.395-3.0085-0.81009-21.918-1.5563-44.045-1.7383l-38.775-0.31836-7.3926-7.3926-0.6875-97.637c-0.63319-89.901-0.88118-98.218-3.125-104.97-3.678-11.068-9.3489-20.154-17.236-27.613-7.6242-7.2107-11.813-9.7375-23.5-14.174-7.2346-2.7462-9.7594-2.8416-87.451-3.2988-22.515-0.13249-39.81-0.20502-53.316-0.125zm-37.492 29.211h82.904c92.209 0 90.168-0.18259 99.488 8.9141 2.7047 2.6398 6.3047 7.864 8 11.609l3.084 6.8105 0.66602 98.666 0.66602 98.666 3.1816 7.0391c4.1793 9.2482 13.579 17.663 23.074 20.656 6.1673 1.9441 12.721 2.2963 41.861 2.25l34.551-0.05469-106.67 107.41c-58.667 59.075-106.97 107.4-107.34 107.39-0.36838-0.01131-48.925-48.279-107.9-107.26l-107.23-107.24 37.902-0.47461c33.252-0.41749 38.557-0.77701 43.236-2.918 8.8667-4.0572 14.992-9.8318 18.93-17.852l3.7363-7.6113 0.66602-99.334c0.65277-97.265 0.72597-99.457 3.457-105.33 4.0546-8.7224 9.0199-14.002 16.836-17.896l6.8984-3.4375zm-104.79 384c-10.055 0-15.732 5.2996-15.732 14.688 0 6.2458 1.8942 8.9491 14.938 21.312 10.556 10.005 12.04 11.984 12.67 16.887l0.71289 5.5547-14.826 14.615c-18.769 18.503-22.144 24.841-22.154 41.609-0.00976 15.55 3.584 22.462 20.236 38.928 21.053 20.817 21.248 22.599 4.3164 39.201-6.6587 6.5291-12.959 13.492-14 15.473-4.0601 7.721-0.80229 18.091 6.625 21.092 7.4883 3.0256 12.593-0.01521 29.654-17.662 17.621-18.226 21.207-25.235 20.117-39.312-0.88865-11.474-5.3697-18.666-22.562-36.209-7.8502-8.0102-14.665-16.127-15.145-18.037-1.5834-6.3089 0.71746-10.213 14.174-24.039 16.203-16.649 19.203-20.617 22.039-29.156 2.7657-8.3268 1.8892-18.538-2.3398-27.27-1.8593-3.8391-9.1382-12.522-18.451-22.008-14.097-14.359-15.788-15.666-20.271-15.666zm359.37 0.26953c-4.6864 0.45451-7.3152 2.5853-9.1582 6.9961-3.5619 8.5249-1.4642 13.203 12.434 27.727l12.617 13.186-0.66406 5.9004c-0.6072 5.387-2.002 7.2881-15.988 21.795-18.875 19.578-21.684 24.698-21.648 39.461 0.0359 14.856 3.5388 21.102 22.996 41.014 14.99 15.34 15.305 15.789 14.523 20.604-0.64066 3.9479-3.2987 7.4376-13.438 17.65-6.9512 7.002-13.253 14.382-14.006 16.398-2.5633 6.8679 0.38709 13.958 7.3574 17.678 4.6765 2.4957 11.572 1.5838 16.471-2.1777 7.1941-5.5245 27.2-28.809 30.215-35.166 2.3121-4.875 3.1648-8.9965 3.1738-15.334 0.01858-13.446-4.5699-21.682-22.5-40.389-12.815-13.369-14.818-16.063-14.818-19.906 0-5.7829 1.8056-8.2998 17.963-25.039 16.756-17.359 20.037-23.473 20.037-37.332 0-14.057-3.9785-21.615-20.438-38.826-12.554-13.128-13.101-13.521-19.709-14.156-2.0668-0.19859-3.8578-0.23353-5.4199-0.08203zm-168.91 134.65c-1.2679 0.11245-2.5944 0.70538-4.7168 1.8418-6.4299 3.4428-9.4244 9.557-8.1348 16.609 0.76331 4.1743 2.991 7.4768 9.8223 14.553 4.86 5.0341 8.8379 10.309 8.8379 11.723s-1.5677 3.4108-3.4824 4.4356c-4.571 2.4463-23.096 22.18-24.645 26.252-3.1506 8.2868 0.59882 16.567 8.543 18.865 9.2894 2.6876 11.058 1.6198 31.07-18.752 11.465-11.671 16.642-17.952 17.834-21.637 2.0899-6.4625 1.0659-17.547-2.209-23.918-3.3622-6.5403-23.326-26.771-28.557-28.938-1.8854-0.78095-3.0953-1.1476-4.3633-1.0352z"/>
</svg>
